<?xml version="1.0" encoding="UTF-8"?>
<svg width="400" height="300" xmlns="http://www.w3.org/2000/svg">
  <!-- Background -->
  <rect width="400" height="300" fill="#f0f0f0"/>
  
  <!-- Title banner -->
  <rect x="20" y="20" width="360" height="60" fill="#5C6BC0" rx="5"/>
  <text x="200" y="60" font-family="Arial, sans-serif" font-size="32" font-weight="bold" fill="white" text-anchor="middle">C Language</text>
  
  <!-- People icons representing society -->
  <circle cx="80" cy="140" r="25" fill="#FF9800"/>
  <rect x="67" y="165" width="26" height="40" fill="#FF9800" rx="3"/>
  
  <circle cx="160" cy="140" r="25" fill="#4CAF50"/>
  <rect x="147" y="165" width="26" height="40" fill="#4CAF50" rx="3"/>
  
  <circle cx="240" cy="140" r="25" fill="#E91E63"/>
  <rect x="227" y="165" width="26" height="40" fill="#E91E63" rx="3"/>
  
  <circle cx="320" cy="140" r="25" fill="#00BCD4"/>
  <rect x="307" y="165" width="26" height="40" fill="#00BCD4" rx="3"/>
  
  <!-- Connection lines -->
  <line x1="105" y1="150" x2="135" y2="150" stroke="#5C6BC0" stroke-width="3"/>
  <line x1="185" y1="150" x2="215" y2="150" stroke="#5C6BC0" stroke-width="3"/>
  <line x1="265" y1="150" x2="295" y2="150" stroke="#5C6BC0" stroke-width="3"/>
  
  <!-- Heart symbol -->
  <path d="M 200 240 L 185 225 Q 180 220 180 215 Q 180 205 190 205 Q 195 205 200 210 Q 205 205 210 205 Q 220 205 220 215 Q 220 220 215 225 Z" fill="#F44336"/>
  
  <!-- Bottom text -->
  <text x="200" y="275" font-family="Arial, sans-serif" font-size="16" font-weight="bold" fill="#333" text-anchor="middle">United by Pointers</text>
</svg>
