<svg xmlns="http://www.w3.org/2000/svg" width="800" height="400" viewBox="0 0 800 400">
  <rect width="800" height="400" fill="#1a0a00"/>
  <rect x="0" y="250" width="800" height="150" fill="#c2813a"/>
  <ellipse cx="200" cy="260" rx="250" ry="60" fill="#d4924a"/>
  <ellipse cx="600" cy="270" rx="220" ry="55" fill="#d4924a"/>
  <circle cx="100" cy="50" r="2" fill="white" opacity="0.8"/>
  <circle cx="300" cy="80" r="1.5" fill="white" opacity="0.9"/>
  <circle cx="500" cy="30" r="2" fill="white" opacity="0.7"/>
  <circle cx="700" cy="60" r="1.5" fill="white" opacity="0.8"/>
  <circle cx="150" cy="120" r="1" fill="white" opacity="0.6"/>
  <circle cx="650" cy="100" r="2" fill="white" opacity="0.9"/>
  <rect x="680" y="180" width="20" height="90" fill="#2d5a27"/>
  <rect x="660" y="210" width="20" height="12" fill="#2d5a27"/>
  <rect x="700" y="200" width="20" height="12" fill="#2d5a27"/>
  <rect x="300" y="170" width="200" height="100" rx="5" fill="#f5c6e0"/>
  <rect x="290" y="155" width="220" height="30" rx="5" fill="#f9a8d4"/>
  <rect x="310" y="200" width="180" height="30" rx="3" fill="#fbbf24"/>
  <ellipse cx="400" cy="155" rx="110" ry="20" fill="white"/>
  <rect x="360" y="115" width="8" height="40" fill="#ef4444"/>
  <rect x="432" y="120" width="8" height="35" fill="#3b82f6"/>
  <rect x="396" y="110" width="8" height="45" fill="#a855f7"/>
  <ellipse cx="364" cy="112" rx="5" ry="8" fill="#fbbf24"/>
  <ellipse cx="436" cy="117" rx="5" ry="8" fill="#fbbf24"/>
  <ellipse cx="400" cy="107" rx="5" ry="8" fill="#fbbf24"/>
  <rect x="245" y="190" width="6" height="80" rx="3" fill="#cccccc"/>
  <rect x="255" y="190" width="6" height="80" rx="3" fill="#cccccc"/>
  <rect x="540" y="190" width="6" height="80" rx="3" fill="#cccccc"/>
  <text x="50" y="200" font-size="40" fill="#fbbf24">🌟</text>
  <text x="700" y="150" font-size="30" fill="#fbbf24">✨</text>
  <text x="400" y="50" font-size="35" fill="white" text-anchor="middle" font-family="serif" font-style="italic">Dessert First!</text>
</svg>
